<svg width="21" height="20" viewBox="0 0 21 20" fill="none" xmlns="http://www.w3.org/2000/svg">
<g id="google" clip-path="url(#clip0_2015_307)">
<path id="Vector" d="M7.46758 0.65784C5.46926 1.35107 3.74592 2.66685 2.55069 4.41191C1.35545 6.15696 0.751312 8.23932 0.827017 10.3531C0.902721 12.4669 1.65428 14.5007 2.97129 16.1558C4.2883 17.8108 6.10136 19 8.14414 19.5485C9.80027 19.9758 11.5354 19.9946 13.2004 19.6032C14.7087 19.2644 16.1032 18.5397 17.2473 17.5C18.438 16.3849 19.3023 14.9664 19.7473 13.3969C20.2307 11.6901 20.3168 9.89525 19.9988 8.15003H10.6988V12.0078H16.0848C15.9771 12.6231 15.7465 13.2104 15.4066 13.7345C15.0667 14.2585 14.6245 14.7086 14.1066 15.0578C13.449 15.4931 12.7076 15.7858 11.9301 15.9172C11.1503 16.0622 10.3505 16.0622 9.5707 15.9172C8.78031 15.754 8.03264 15.4278 7.37539 14.9594C6.31937 14.2119 5.52644 13.1499 5.10976 11.925C4.68615 10.6772 4.68615 9.32443 5.10976 8.07659C5.40637 7.20193 5.89669 6.40555 6.54414 5.7469C7.28506 4.97932 8.22309 4.43065 9.25532 4.16108C10.2875 3.89152 11.3741 3.91148 12.3957 4.21878C13.1938 4.46366 13.9237 4.89171 14.527 5.46878C15.1342 4.86461 15.7405 4.25888 16.3457 3.65159C16.6582 3.32503 16.9988 3.01409 17.3066 2.67971C16.3856 1.82271 15.3045 1.15582 14.1254 0.717215C11.9781 -0.0624883 9.62848 -0.0834421 7.46758 0.65784Z" fill="#090E1D"/>
<path id="Vector_2" d="M7.46721 0.657806C9.62794 -0.08398 11.9775 -0.0635778 14.125 0.715618C15.3044 1.1572 16.3849 1.82731 17.3047 2.68749C16.9922 3.02187 16.6625 3.33437 16.3438 3.65937C15.7375 4.26458 15.1318 4.8677 14.5266 5.46874C13.9233 4.89168 13.1935 4.46362 12.3953 4.21874C11.374 3.91037 10.2876 3.88926 9.25505 4.15772C8.22256 4.42618 7.28395 4.97384 6.54221 5.74062C5.89476 6.39927 5.40444 7.19564 5.10784 8.07031L1.86877 5.56249C3.02816 3.26337 5.03557 1.50472 7.46721 0.657806Z" fill="#D80004"/>
<path id="Vector_3" d="M1.00942 8.04688C1.18339 7.18402 1.47243 6.34843 1.86879 5.5625L5.10786 8.07656C4.68425 9.3244 4.68425 10.6772 5.10786 11.925C4.02869 12.7583 2.949 13.5958 1.86879 14.4375C0.876842 12.463 0.574314 10.2133 1.00942 8.04688Z" fill="#F8BD00"/>
<path id="Vector_4" d="M10.6984 8.14844H19.9984C20.3164 9.89366 20.2303 11.6885 19.7469 13.3953C19.3019 14.9648 18.4376 16.3834 17.2469 17.4984C16.2016 16.6828 15.1516 15.8734 14.1063 15.0578C14.6245 14.7082 15.0668 14.2576 15.4067 13.733C15.7467 13.2084 15.9771 12.6205 16.0844 12.0047H10.6984C10.6969 10.7203 10.6984 9.43437 10.6984 8.14844Z" fill="#587DBD"/>
<path id="Vector_5" d="M1.86719 14.4375C2.9474 13.6042 4.02708 12.7667 5.10625 11.925C5.52376 13.1503 6.31782 14.2123 7.375 14.9594C8.0343 15.4256 8.78359 15.7491 9.575 15.9094C10.3548 16.0544 11.1546 16.0544 11.9344 15.9094C12.7119 15.7779 13.4533 15.4852 14.1109 15.05C15.1562 15.8656 16.2063 16.675 17.2516 17.4906C16.1076 18.5308 14.7132 19.2561 13.2047 19.5953C11.5397 19.9867 9.80457 19.9679 8.14844 19.5406C6.8386 19.1909 5.61512 18.5744 4.55469 17.7297C3.43239 16.8385 2.51568 15.7155 1.86719 14.4375Z" fill="#319F43"/>
</g>
<defs>
<clipPath id="clip0_2015_307">
<rect width="20" height="20" fill="white" transform="translate(0.5)"/>
</clipPath>
</defs>
</svg>
